<svg width="16" height="16" viewBox="0 0 16 16" fill="none" xmlns="http://www.w3.org/2000/svg">
<path fill-rule="evenodd" clip-rule="evenodd" d="M11.0599 15.5H4.93238C2.28488 15.5 0.499878 13.7968 0.499878 11.255V4.7525C0.499878 2.21 2.28488 0.5 4.93238 0.5H11.0599C13.7149 0.5 15.4999 2.21 15.4999 4.7525V11.255C15.4999 13.7968 13.7149 15.5 11.0599 15.5ZM9.70238 7.4375H4.93988C4.62488 7.4375 4.37738 7.6925 4.37738 8C4.37738 8.315 4.62488 8.5625 4.93988 8.5625H9.70238L7.84238 10.415C7.73738 10.52 7.67738 10.67 7.67738 10.8125C7.67738 10.9543 7.73738 11.0975 7.84238 11.21C8.05988 11.4275 8.41988 11.4275 8.63738 11.21L11.4649 8.3975C11.6749 8.1875 11.6749 7.8125 11.4649 7.6025L8.63738 4.79C8.41988 4.5725 8.05988 4.5725 7.84238 4.79C7.62488 5.015 7.62488 5.3675 7.84238 5.5925L9.70238 7.4375Z" fill="white"/>
</svg>
