<svg width="12" height="14" viewBox="0 0 12 14" fill="none" xmlns="http://www.w3.org/2000/svg">
<path fill-rule="evenodd" clip-rule="evenodd" d="M0.333313 5.87842C0.333313 2.81185 2.8959 0.333252 5.99561 0.333252C9.10406 0.333252 11.6666 2.81185 11.6666 5.87842C11.6666 7.42371 11.1047 8.85834 10.1796 10.0743C9.15918 11.4156 7.90142 12.5842 6.48568 13.5015C6.16165 13.7135 5.86923 13.7295 5.51361 13.5015C4.0898 12.5842 2.83204 11.4156 1.82031 10.0743C0.894635 8.85834 0.333313 7.42371 0.333313 5.87842ZM4.12947 6.05109C4.12947 7.0784 4.96776 7.88637 5.99562 7.88637C7.02415 7.88637 7.8705 7.0784 7.8705 6.05109C7.8705 5.03179 7.02415 4.18448 5.99562 4.18448C4.96776 4.18448 4.12947 5.03179 4.12947 6.05109Z" fill="#324E7E"/>
</svg>
